<svg width="283" height="54" viewBox="0 0 283 54" fill="none" xmlns="http://www.w3.org/2000/svg">
<g clip-path="url(#clip0_1289_181)">
<path d="M1 6.5C1 3.73858 3.23858 1.5 6 1.5H277C279.761 1.5 282 3.73858 282 6.5V47.5C282 50.2614 279.761 52.5 277 52.5H6C3.23858 52.5 1 50.2614 1 47.5V6.5Z" fill="#F8F8F8"/>
<path d="M1 1.5H282V52.5H1V1.5Z" fill="#F8F8F8"/>
<path d="M1 1.5H282V52.5H1V1.5Z" stroke="#E2E2E2"/>
<path d="M30.667 20.3333H17.3337C16.4132 20.3333 15.667 21.0794 15.667 21.9999V31.9999C15.667 32.9204 16.4132 33.6666 17.3337 33.6666H30.667C31.5875 33.6666 32.3337 32.9204 32.3337 31.9999V21.9999C32.3337 21.0794 31.5875 20.3333 30.667 20.3333Z" stroke="#171717" stroke-width="1.67" stroke-linecap="round" stroke-linejoin="round"/>
<path d="M32.3337 22.8333L24.8587 27.5833C24.6014 27.7444 24.3039 27.8299 24.0003 27.8299C23.6967 27.8299 23.3993 27.7444 23.142 27.5833L15.667 22.8333" stroke="#171717" stroke-width="1.67" stroke-linecap="round" stroke-linejoin="round"/>
<path d="M45.0994 23.5H42.0387V14.0455H45.1964C46.1228 14.0455 46.9183 14.2347 47.5831 14.6133C48.2479 14.9888 48.7572 15.5289 49.1112 16.2337C49.4682 16.9354 49.6467 17.7771 49.6467 18.7589C49.6467 19.7437 49.4666 20.5901 49.1065 21.2979C48.7495 22.0058 48.2325 22.5505 47.5554 22.9322C46.8783 23.3107 46.0597 23.5 45.0994 23.5ZM43.4652 22.2536H45.021C45.7411 22.2536 46.3397 22.1181 46.8168 21.8473C47.2938 21.5734 47.6508 21.1779 47.8878 20.6609C48.1248 20.1407 48.2433 19.5067 48.2433 18.7589C48.2433 18.0172 48.1248 17.3878 47.8878 16.8707C47.6539 16.3537 47.3046 15.9613 46.8398 15.6935C46.3751 15.4258 45.7981 15.2919 45.1087 15.2919H43.4652V22.2536ZM51.3097 23.5V16.4091H52.6901V23.5H51.3097ZM52.0068 15.315C51.7668 15.315 51.5606 15.235 51.3882 15.0749C51.219 14.9118 51.1343 14.7179 51.1343 14.4933C51.1343 14.2655 51.219 14.0716 51.3882 13.9116C51.5606 13.7485 51.7668 13.6669 52.0068 13.6669C52.2469 13.6669 52.4516 13.7485 52.6208 13.9116C52.7932 14.0716 52.8794 14.2655 52.8794 14.4933C52.8794 14.7179 52.7932 14.9118 52.6208 15.0749C52.4516 15.235 52.2469 15.315 52.0068 15.315ZM57.8571 16.4091V17.517H53.9838V16.4091H57.8571ZM55.0225 14.7102H56.4029V21.418C56.4029 21.6857 56.4429 21.8873 56.5229 22.0227C56.6029 22.1551 56.706 22.2459 56.8322 22.2951C56.9615 22.3413 57.1015 22.3643 57.2523 22.3643C57.3631 22.3643 57.46 22.3567 57.5431 22.3413C57.6262 22.3259 57.6909 22.3136 57.737 22.3043L57.9863 23.4446C57.9063 23.4754 57.7924 23.5062 57.6447 23.5369C57.497 23.5708 57.3123 23.5893 57.0907 23.5923C56.7276 23.5985 56.389 23.5339 56.0751 23.3984C55.7612 23.263 55.5073 23.0537 55.3134 22.7706C55.1195 22.4875 55.0225 22.132 55.0225 21.7042V14.7102ZM65.4789 23.6385C64.9064 23.6385 64.3955 23.4923 63.9462 23.1999C63.4999 22.9045 63.1491 22.4844 62.8936 21.9396C62.6413 21.3918 62.5151 20.7347 62.5151 19.9684C62.5151 19.2021 62.6428 18.5465 62.8983 18.0018C63.1568 17.457 63.5107 17.04 63.96 16.7507C64.4094 16.4614 64.9187 16.3168 65.4881 16.3168C65.9282 16.3168 66.2821 16.3906 66.5499 16.5384C66.8207 16.683 67.03 16.8523 67.1777 17.0462C67.3285 17.2401 67.4455 17.4109 67.5286 17.5586H67.6117V14.0455H68.992V23.5H67.644V22.3967H67.5286C67.4455 22.5475 67.3255 22.7198 67.1685 22.9137C67.0146 23.1076 66.8023 23.2769 66.5314 23.4215C66.2606 23.5662 65.9097 23.6385 65.4789 23.6385ZM65.7836 22.4613C66.1806 22.4613 66.516 22.3567 66.79 22.1474C67.0669 21.935 67.2762 21.6411 67.4178 21.2656C67.5624 20.8902 67.6348 20.4531 67.6348 19.9545C67.6348 19.4621 67.564 19.0312 67.4224 18.6619C67.2808 18.2926 67.0731 18.0049 66.7992 17.7987C66.5253 17.5924 66.1867 17.4893 65.7836 17.4893C65.3681 17.4893 65.0218 17.5971 64.7449 17.8125C64.4679 18.0279 64.2586 18.3219 64.117 18.6942C63.9785 19.0666 63.9093 19.4867 63.9093 19.9545C63.9093 20.4285 63.9801 20.8548 64.1216 21.2333C64.2632 21.6119 64.4725 21.9119 64.7495 22.1335C65.0295 22.352 65.3742 22.4613 65.7836 22.4613ZM73.0257 23.657C72.5763 23.657 72.1701 23.5739 71.8069 23.4077C71.4437 23.2384 71.156 22.9937 70.9436 22.6737C70.7343 22.3536 70.6297 21.9612 70.6297 21.4964C70.6297 21.0964 70.7066 20.767 70.8605 20.5085C71.0144 20.25 71.2222 20.0453 71.4838 19.8945C71.7454 19.7437 72.0377 19.6299 72.3609 19.5529C72.684 19.476 73.0133 19.4175 73.3488 19.3775C73.7735 19.3282 74.1182 19.2882 74.3829 19.2575C74.6476 19.2236 74.8399 19.1697 74.96 19.0959C75.08 19.022 75.14 18.902 75.14 18.7358V18.7035C75.14 18.3003 75.0261 17.9879 74.7984 17.7663C74.5737 17.5447 74.2383 17.4339 73.792 17.4339C73.3273 17.4339 72.961 17.537 72.6933 17.7433C72.4286 17.9464 72.2455 18.1726 72.1439 18.4219L70.8467 18.1264C71.0006 17.6955 71.2252 17.3478 71.5207 17.0831C71.8192 16.8153 72.1624 16.6214 72.5502 16.5014C72.9379 16.3783 73.3457 16.3168 73.7735 16.3168C74.0567 16.3168 74.3567 16.3506 74.6737 16.4183C74.9938 16.483 75.2923 16.603 75.5693 16.7784C75.8494 16.9538 76.0787 17.2047 76.2572 17.5309C76.4357 17.854 76.5249 18.2741 76.5249 18.7912V23.5H75.1769V22.5305H75.1215C75.0323 22.709 74.8984 22.8845 74.7199 23.0568C74.5414 23.2292 74.3121 23.3723 74.032 23.4862C73.752 23.6 73.4165 23.657 73.0257 23.657ZM73.3257 22.549C73.7074 22.549 74.0336 22.4736 74.3044 22.3228C74.5783 22.172 74.7861 21.975 74.9276 21.7319C75.0723 21.4857 75.1446 21.2225 75.1446 20.9425V20.0284C75.0954 20.0777 75 20.1238 74.8584 20.1669C74.7199 20.2069 74.5614 20.2423 74.3829 20.2731C74.2044 20.3008 74.0305 20.3269 73.8612 20.3516C73.692 20.3731 73.5504 20.3916 73.4365 20.407C73.1688 20.4408 72.9241 20.4978 72.7025 20.5778C72.484 20.6578 72.3086 20.7732 72.1762 20.924C72.047 21.0717 71.9823 21.2687 71.9823 21.5149C71.9823 21.8565 72.1085 22.1151 72.3609 22.2905C72.6133 22.4628 72.9349 22.549 73.3257 22.549ZM81.3365 26.3068C80.7733 26.3068 80.2885 26.233 79.8823 26.0852C79.4791 25.9375 79.1498 25.7421 78.8944 25.4989C78.6389 25.2558 78.4481 24.9896 78.3219 24.7003L79.5083 24.2109C79.5914 24.3464 79.7022 24.4895 79.8407 24.6403C79.9823 24.7942 80.1731 24.925 80.4132 25.0327C80.6563 25.1404 80.9687 25.1942 81.3503 25.1942C81.8735 25.1942 82.3059 25.0665 82.6475 24.8111C82.9892 24.5587 83.16 24.1555 83.16 23.6016V22.2074H83.0723C82.9892 22.3582 82.8691 22.5259 82.7122 22.7106C82.5583 22.8952 82.3459 23.0553 82.0751 23.1907C81.8043 23.3261 81.4519 23.3938 81.0179 23.3938C80.4578 23.3938 79.9531 23.263 79.5037 23.0014C79.0575 22.7367 78.7035 22.3474 78.4419 21.8335C78.1834 21.3164 78.0542 20.6809 78.0542 19.9268C78.0542 19.1728 78.1819 18.5265 78.4373 17.9879C78.6958 17.4493 79.0498 17.0369 79.4991 16.7507C79.9484 16.4614 80.4578 16.3168 81.0272 16.3168C81.4673 16.3168 81.8227 16.3906 82.0936 16.5384C82.3644 16.683 82.5752 16.8523 82.726 17.0462C82.8799 17.2401 82.9984 17.4109 83.0815 17.5586H83.1831V16.4091H84.5357V23.657C84.5357 24.2663 84.3941 24.7665 84.111 25.1573C83.8278 25.5482 83.4447 25.8375 82.9615 26.0252C82.4814 26.2129 81.9397 26.3068 81.3365 26.3068ZM81.3226 22.2489C81.7196 22.2489 82.0551 22.1566 82.329 21.9719C82.606 21.7842 82.8153 21.5165 82.9569 21.1687C83.1015 20.8178 83.1738 20.3977 83.1738 19.9084C83.1738 19.4313 83.103 19.0112 82.9615 18.6481C82.8199 18.2849 82.6122 18.0018 82.3382 17.7987C82.0643 17.5924 81.7258 17.4893 81.3226 17.4893C80.9071 17.4893 80.5609 17.5971 80.2839 17.8125C80.0069 18.0249 79.7976 18.3142 79.6561 18.6804C79.5176 19.0466 79.4483 19.456 79.4483 19.9084C79.4483 20.3731 79.5191 20.7809 79.6607 21.1317C79.8023 21.4826 80.0115 21.7565 80.2885 21.9535C80.5686 22.1504 80.9133 22.2489 81.3226 22.2489ZM87.7672 14.0455V23.5H86.3869V14.0455H87.7672ZM89.6242 23.5V16.4091H91.0045V23.5H89.6242ZM90.3213 15.315C90.0812 15.315 89.875 15.235 89.7027 15.0749C89.5334 14.9118 89.4488 14.7179 89.4488 14.4933C89.4488 14.2655 89.5334 14.0716 89.7027 13.9116C89.875 13.7485 90.0812 13.6669 90.3213 13.6669C90.5613 13.6669 90.766 13.7485 90.9353 13.9116C91.1076 14.0716 91.1938 14.2655 91.1938 14.4933C91.1938 14.7179 91.1076 14.9118 90.9353 15.0749C90.766 15.235 90.5613 15.315 90.3213 15.315ZM95.8345 26.3068C95.2713 26.3068 94.7866 26.233 94.3803 26.0852C93.9772 25.9375 93.6478 25.7421 93.3924 25.4989C93.137 25.2558 92.9461 24.9896 92.82 24.7003L94.0064 24.2109C94.0895 24.3464 94.2003 24.4895 94.3388 24.6403C94.4804 24.7942 94.6712 24.925 94.9112 25.0327C95.1544 25.1404 95.4667 25.1942 95.8484 25.1942C96.3716 25.1942 96.804 25.0665 97.1456 24.8111C97.4872 24.5587 97.658 24.1555 97.658 23.6016V22.2074H97.5703C97.4872 22.3582 97.3672 22.5259 97.2102 22.7106C97.0563 22.8952 96.844 23.0553 96.5732 23.1907C96.3023 23.3261 95.9499 23.3938 95.516 23.3938C94.9558 23.3938 94.4511 23.263 94.0018 23.0014C93.5555 22.7367 93.2016 22.3474 92.94 21.8335C92.6815 21.3164 92.5522 20.6809 92.5522 19.9268C92.5522 19.1728 92.6799 18.5265 92.9354 17.9879C93.1939 17.4493 93.5478 17.0369 93.9972 16.7507C94.4465 16.4614 94.9558 16.3168 95.5252 16.3168C95.9653 16.3168 96.3208 16.3906 96.5916 16.5384C96.8625 16.683 97.0733 16.8523 97.2241 17.0462C97.378 17.2401 97.4964 17.4109 97.5795 17.5586H97.6811V16.4091H99.0337V23.657C99.0337 24.2663 98.8922 24.7665 98.609 25.1573C98.3259 25.5482 97.9427 25.8375 97.4595 26.0252C96.9794 26.2129 96.4377 26.3068 95.8345 26.3068ZM95.8207 22.2489C96.2177 22.2489 96.5531 22.1566 96.8271 21.9719C97.104 21.7842 97.3133 21.5165 97.4549 21.1687C97.5996 20.8178 97.6719 20.3977 97.6719 19.9084C97.6719 19.4313 97.6011 19.0112 97.4595 18.6481C97.3179 18.2849 97.1102 18.0018 96.8363 17.7987C96.5624 17.5924 96.2238 17.4893 95.8207 17.4893C95.4052 17.4893 95.0589 17.5971 94.782 17.8125C94.505 18.0249 94.2957 18.3142 94.1541 18.6804C94.0156 19.0466 93.9464 19.456 93.9464 19.9084C93.9464 20.3731 94.0172 20.7809 94.1587 21.1317C94.3003 21.4826 94.5096 21.7565 94.7866 21.9535C95.0666 22.1504 95.4113 22.2489 95.8207 22.2489ZM103.941 23.6431C103.242 23.6431 102.641 23.4938 102.136 23.1953C101.634 22.8937 101.247 22.4705 100.973 21.9258C100.702 21.378 100.566 20.7363 100.566 20.0007C100.566 19.2744 100.702 18.6342 100.973 18.0803C101.247 17.5263 101.628 17.0939 102.118 16.783C102.61 16.4722 103.185 16.3168 103.844 16.3168C104.244 16.3168 104.632 16.3829 105.007 16.5153C105.383 16.6476 105.72 16.8554 106.018 17.1385C106.317 17.4216 106.552 17.7894 106.725 18.2418C106.897 18.6912 106.983 19.2375 106.983 19.8807V20.37H101.347V19.3359H105.631C105.631 18.9728 105.557 18.6512 105.409 18.3711C105.261 18.0879 105.054 17.8648 104.786 17.7017C104.521 17.5386 104.21 17.457 103.853 17.457C103.466 17.457 103.127 17.5524 102.838 17.7433C102.551 17.931 102.33 18.1772 102.173 18.4819C102.019 18.7835 101.942 19.1113 101.942 19.4652V20.2731C101.942 20.747 102.025 21.1502 102.191 21.4826C102.361 21.815 102.596 22.0689 102.898 22.2443C103.199 22.4167 103.552 22.5028 103.955 22.5028C104.217 22.5028 104.455 22.4659 104.67 22.392C104.886 22.3151 105.072 22.2012 105.229 22.0504C105.386 21.8996 105.506 21.7134 105.589 21.4918L106.896 21.7273C106.791 22.112 106.603 22.449 106.332 22.7383C106.065 23.0245 105.728 23.2476 105.321 23.4077C104.918 23.5646 104.458 23.6431 103.941 23.6431ZM112.066 23.5V14.0455H113.446V17.5586H113.529C113.609 17.4109 113.725 17.2401 113.876 17.0462C114.027 16.8523 114.236 16.683 114.504 16.5384C114.771 16.3906 115.125 16.3168 115.565 16.3168C116.138 16.3168 116.649 16.4614 117.098 16.7507C117.547 17.04 117.9 17.457 118.155 18.0018C118.414 18.5465 118.543 19.2021 118.543 19.9684C118.543 20.7347 118.415 21.3918 118.16 21.9396C117.904 22.4844 117.554 22.9045 117.107 23.1999C116.661 23.4923 116.152 23.6385 115.579 23.6385C115.148 23.6385 114.796 23.5662 114.522 23.4215C114.251 23.2769 114.039 23.1076 113.885 22.9137C113.731 22.7198 113.613 22.5475 113.529 22.3967H113.414V23.5H112.066ZM113.419 19.9545C113.419 20.4531 113.491 20.8902 113.636 21.2656C113.78 21.6411 113.99 21.935 114.263 22.1474C114.537 22.3567 114.873 22.4613 115.27 22.4613C115.682 22.4613 116.027 22.352 116.304 22.1335C116.581 21.9119 116.79 21.6119 116.932 21.2333C117.076 20.8548 117.149 20.4285 117.149 19.9545C117.149 19.4867 117.078 19.0666 116.936 18.6942C116.798 18.3219 116.589 18.0279 116.309 17.8125C116.032 17.5971 115.685 17.4893 115.27 17.4893C114.87 17.4893 114.531 17.5924 114.254 17.7987C113.98 18.0049 113.773 18.2926 113.631 18.6619C113.489 19.0312 113.419 19.4621 113.419 19.9545ZM120.093 23.5V16.4091H121.473V23.5H120.093ZM120.79 15.315C120.55 15.315 120.344 15.235 120.171 15.0749C120.002 14.9118 119.918 14.7179 119.918 14.4933C119.918 14.2655 120.002 14.0716 120.171 13.9116C120.344 13.7485 120.55 13.6669 120.79 13.6669C121.03 13.6669 121.235 13.7485 121.404 13.9116C121.576 14.0716 121.663 14.2655 121.663 14.4933C121.663 14.7179 121.576 14.9118 121.404 15.0749C121.235 15.235 121.03 15.315 120.79 15.315ZM124.711 14.0455V23.5H123.33V14.0455H124.711ZM127.948 14.0455V23.5H126.568V14.0455H127.948ZM132.861 23.6431C132.162 23.6431 131.561 23.4938 131.056 23.1953C130.554 22.8937 130.166 22.4705 129.893 21.9258C129.622 21.378 129.486 20.7363 129.486 20.0007C129.486 19.2744 129.622 18.6342 129.893 18.0803C130.166 17.5263 130.548 17.0939 131.037 16.783C131.53 16.4722 132.105 16.3168 132.764 16.3168C133.164 16.3168 133.552 16.3829 133.927 16.5153C134.303 16.6476 134.64 16.8554 134.938 17.1385C135.237 17.4216 135.472 17.7894 135.645 18.2418C135.817 18.6912 135.903 19.2375 135.903 19.8807V20.37H130.267V19.3359H134.551C134.551 18.9728 134.477 18.6512 134.329 18.3711C134.181 18.0879 133.974 17.8648 133.706 17.7017C133.441 17.5386 133.13 17.457 132.773 17.457C132.385 17.457 132.047 17.5524 131.758 17.7433C131.471 17.931 131.25 18.1772 131.093 18.4819C130.939 18.7835 130.862 19.1113 130.862 19.4652V20.2731C130.862 20.747 130.945 21.1502 131.111 21.4826C131.281 21.815 131.516 22.0689 131.818 22.2443C132.119 22.4167 132.472 22.5028 132.875 22.5028C133.136 22.5028 133.375 22.4659 133.59 22.392C133.806 22.3151 133.992 22.2012 134.149 22.0504C134.306 21.8996 134.426 21.7134 134.509 21.4918L135.816 21.7273C135.711 22.112 135.523 22.449 135.252 22.7383C134.985 23.0245 134.648 23.2476 134.241 23.4077C133.838 23.5646 133.378 23.6431 132.861 23.6431ZM140.089 23.6385C139.517 23.6385 139.006 23.4923 138.557 23.1999C138.11 22.9045 137.759 22.4844 137.504 21.9396C137.252 21.3918 137.125 20.7347 137.125 19.9684C137.125 19.2021 137.253 18.5465 137.509 18.0018C137.767 17.457 138.121 17.04 138.57 16.7507C139.02 16.4614 139.529 16.3168 140.098 16.3168C140.539 16.3168 140.892 16.3906 141.16 16.5384C141.431 16.683 141.64 16.8523 141.788 17.0462C141.939 17.2401 142.056 17.4109 142.139 17.5586H142.222V14.0455H143.602V23.5H142.254V22.3967H142.139C142.056 22.5475 141.936 22.7198 141.779 22.9137C141.625 23.1076 141.413 23.2769 141.142 23.4215C140.871 23.5662 140.52 23.6385 140.089 23.6385ZM140.394 22.4613C140.791 22.4613 141.126 22.3567 141.4 22.1474C141.677 21.935 141.887 21.6411 142.028 21.2656C142.173 20.8902 142.245 20.4531 142.245 19.9545C142.245 19.4621 142.174 19.0312 142.033 18.6619C141.891 18.2926 141.683 18.0049 141.41 17.7987C141.136 17.5924 140.797 17.4893 140.394 17.4893C139.978 17.4893 139.632 17.5971 139.355 17.8125C139.078 18.0279 138.869 18.3219 138.727 18.6942C138.589 19.0666 138.52 19.4867 138.52 19.9545C138.52 20.4285 138.59 20.8548 138.732 21.2333C138.874 21.6119 139.083 21.9119 139.36 22.1335C139.64 22.352 139.985 22.4613 140.394 22.4613ZM148.629 23.6431C147.93 23.6431 147.328 23.4938 146.824 23.1953C146.322 22.8937 145.934 22.4705 145.66 21.9258C145.389 21.378 145.254 20.7363 145.254 20.0007C145.254 19.2744 145.389 18.6342 145.66 18.0803C145.934 17.5263 146.316 17.0939 146.805 16.783C147.297 16.4722 147.873 16.3168 148.532 16.3168C148.932 16.3168 149.319 16.3829 149.695 16.5153C150.07 16.6476 150.407 16.8554 150.706 17.1385C151.004 17.4216 151.24 17.7894 151.412 18.2418C151.585 18.6912 151.671 19.2375 151.671 19.8807V20.37H146.034V19.3359H150.318C150.318 18.9728 150.244 18.6512 150.097 18.3711C149.949 18.0879 149.741 17.8648 149.473 17.7017C149.209 17.5386 148.898 17.457 148.541 17.457C148.153 17.457 147.815 17.5524 147.525 17.7433C147.239 17.931 147.017 18.1772 146.86 18.4819C146.707 18.7835 146.63 19.1113 146.63 19.4652V20.2731C146.63 20.747 146.713 21.1502 146.879 21.4826C147.048 21.815 147.284 22.0689 147.585 22.2443C147.887 22.4167 148.239 22.5028 148.642 22.5028C148.904 22.5028 149.143 22.4659 149.358 22.392C149.573 22.3151 149.76 22.2012 149.917 22.0504C150.074 21.8996 150.194 21.7134 150.277 21.4918L151.583 21.7273C151.478 22.112 151.291 22.449 151.02 22.7383C150.752 23.0245 150.415 23.2476 150.009 23.4077C149.606 23.5646 149.146 23.6431 148.629 23.6431ZM160.017 16.4091V17.517H156.01V16.4091H160.017ZM157.109 23.5V15.5874C157.109 15.1442 157.206 14.7764 157.4 14.484C157.594 14.1886 157.851 13.9685 158.171 13.8239C158.491 13.6761 158.839 13.6023 159.214 13.6023C159.491 13.6023 159.728 13.6254 159.925 13.6715C160.122 13.7146 160.268 13.7546 160.364 13.7915L160.04 14.9087C159.976 14.8903 159.893 14.8687 159.791 14.8441C159.69 14.8164 159.567 14.8026 159.422 14.8026C159.086 14.8026 158.846 14.8857 158.702 15.0518C158.56 15.218 158.489 15.4581 158.489 15.772V23.5H157.109ZM161.442 23.5V16.4091H162.776V17.5355H162.85C162.979 17.1539 163.207 16.8538 163.533 16.6353C163.862 16.4137 164.235 16.3029 164.65 16.3029C164.736 16.3029 164.838 16.306 164.955 16.3121C165.075 16.3183 165.169 16.326 165.236 16.3352V17.6555C165.181 17.6402 165.082 17.6232 164.941 17.6048C164.799 17.5832 164.658 17.5724 164.516 17.5724C164.19 17.5724 163.899 17.6417 163.644 17.7802C163.391 17.9156 163.191 18.1049 163.044 18.348C162.896 18.5881 162.822 18.862 162.822 19.1697V23.5H161.442ZM168.431 23.657C167.982 23.657 167.575 23.5739 167.212 23.4077C166.849 23.2384 166.561 22.9937 166.349 22.6737C166.14 22.3536 166.035 21.9612 166.035 21.4964C166.035 21.0964 166.112 20.767 166.266 20.5085C166.42 20.25 166.627 20.0453 166.889 19.8945C167.151 19.7437 167.443 19.6299 167.766 19.5529C168.089 19.476 168.419 19.4175 168.754 19.3775C169.179 19.3282 169.523 19.2882 169.788 19.2575C170.053 19.2236 170.245 19.1697 170.365 19.0959C170.485 19.022 170.545 18.902 170.545 18.7358V18.7035C170.545 18.3003 170.431 17.9879 170.204 17.7663C169.979 17.5447 169.644 17.4339 169.197 17.4339C168.733 17.4339 168.366 17.537 168.099 17.7433C167.834 17.9464 167.651 18.1726 167.549 18.4219L166.252 18.1264C166.406 17.6955 166.631 17.3478 166.926 17.0831C167.224 16.8153 167.568 16.6214 167.955 16.5014C168.343 16.3783 168.751 16.3168 169.179 16.3168C169.462 16.3168 169.762 16.3506 170.079 16.4183C170.399 16.483 170.698 16.603 170.975 16.7784C171.255 16.9538 171.484 17.2047 171.662 17.5309C171.841 17.854 171.93 18.2741 171.93 18.7912V23.5H170.582V22.5305H170.527C170.438 22.709 170.304 22.8845 170.125 23.0568C169.947 23.2292 169.717 23.3723 169.437 23.4862C169.157 23.6 168.822 23.657 168.431 23.657ZM168.731 22.549C169.113 22.549 169.439 22.4736 169.71 22.3228C169.984 22.172 170.191 21.975 170.333 21.7319C170.478 21.4857 170.55 21.2225 170.55 20.9425V20.0284C170.501 20.0777 170.405 20.1238 170.264 20.1669C170.125 20.2069 169.967 20.2423 169.788 20.2731C169.61 20.3008 169.436 20.3269 169.267 20.3516C169.097 20.3731 168.956 20.3916 168.842 20.407C168.574 20.4408 168.329 20.4978 168.108 20.5778C167.889 20.6578 167.714 20.7732 167.581 20.924C167.452 21.0717 167.388 21.2687 167.388 21.5149C167.388 21.8565 167.514 22.1151 167.766 22.2905C168.019 22.4628 168.34 22.549 168.731 22.549ZM184.951 14.0455V23.5H183.64L178.834 16.5661H178.746V23.5H177.32V14.0455H178.64L183.451 20.9886H183.538V14.0455H184.951ZM186.921 23.5V16.4091H188.301V23.5H186.921ZM187.618 15.315C187.378 15.315 187.172 15.235 187 15.0749C186.83 14.9118 186.746 14.7179 186.746 14.4933C186.746 14.2655 186.83 14.0716 187 13.9116C187.172 13.7485 187.378 13.6669 187.618 13.6669C187.858 13.6669 188.063 13.7485 188.232 13.9116C188.405 14.0716 188.491 14.2655 188.491 14.4933C188.491 14.7179 188.405 14.9118 188.232 15.0749C188.063 15.235 187.858 15.315 187.618 15.315ZM191.428 21.0948L191.419 19.4098H191.659L194.484 16.4091H196.137L192.914 19.8253H192.697L191.428 21.0948ZM190.158 23.5V14.0455H191.539V23.5H190.158ZM194.636 23.5L192.097 20.13L193.048 19.1651L196.331 23.5H194.636ZM200.09 23.6431C199.425 23.6431 198.845 23.4908 198.349 23.1861C197.854 22.8814 197.469 22.4551 197.195 21.9073C196.921 21.3595 196.784 20.7193 196.784 19.9869C196.784 19.2513 196.921 18.6081 197.195 18.0572C197.469 17.5063 197.854 17.0785 198.349 16.7738C198.845 16.4691 199.425 16.3168 200.09 16.3168C200.754 16.3168 201.334 16.4691 201.83 16.7738C202.325 17.0785 202.71 17.5063 202.984 18.0572C203.258 18.6081 203.395 19.2513 203.395 19.9869C203.395 20.7193 203.258 21.3595 202.984 21.9073C202.71 22.4551 202.325 22.8814 201.83 23.1861C201.334 23.4908 200.754 23.6431 200.09 23.6431ZM200.094 22.4844C200.525 22.4844 200.882 22.3705 201.165 22.1428C201.448 21.915 201.658 21.6119 201.793 21.2333C201.932 20.8548 202.001 20.4377 202.001 19.9822C202.001 19.5298 201.932 19.1143 201.793 18.7358C201.658 18.3542 201.448 18.0479 201.165 17.8171C200.882 17.5863 200.525 17.4709 200.094 17.4709C199.66 17.4709 199.3 17.5863 199.014 17.8171C198.731 18.0479 198.52 18.3542 198.381 18.7358C198.246 19.1143 198.178 19.5298 198.178 19.9822C198.178 20.4377 198.246 20.8548 198.381 21.2333C198.52 21.6119 198.731 21.915 199.014 22.1428C199.3 22.3705 199.66 22.4844 200.094 22.4844ZM207.448 24.41H220.448V11.41H207.448V24.41Z" fill="#171717"/>
<path d="M42.0568 39.5V30.7727H45.108C45.7159 30.7727 46.2173 30.8778 46.6122 31.0881C47.0071 31.2955 47.3011 31.5753 47.4943 31.9276C47.6875 32.277 47.7841 32.6648 47.7841 33.0909C47.7841 33.4659 47.7173 33.7756 47.5838 34.0199C47.4531 34.2642 47.2798 34.4574 47.0639 34.5994C46.8509 34.7415 46.6193 34.8466 46.3693 34.9148V35C46.6364 35.017 46.9048 35.1108 47.1747 35.2812C47.4446 35.4517 47.6705 35.696 47.8523 36.0142C48.0341 36.3324 48.125 36.7216 48.125 37.1818C48.125 37.6193 48.0256 38.0128 47.8267 38.3622C47.6278 38.7116 47.3139 38.9886 46.8849 39.1932C46.456 39.3977 45.8977 39.5 45.2102 39.5H42.0568ZM43.1136 38.5625H45.2102C45.9006 38.5625 46.3906 38.429 46.6804 38.1619C46.973 37.892 47.1193 37.5653 47.1193 37.1818C47.1193 36.8864 47.044 36.6136 46.8935 36.3636C46.7429 36.1108 46.5284 35.9091 46.25 35.7585C45.9716 35.6051 45.642 35.5284 45.2614 35.5284H43.1136V38.5625ZM43.1136 34.608H45.0739C45.392 34.608 45.679 34.5455 45.9347 34.4205C46.1932 34.2955 46.3977 34.1193 46.5483 33.892C46.7017 33.6648 46.7784 33.3977 46.7784 33.0909C46.7784 32.7074 46.6449 32.3821 46.3778 32.1151C46.1108 31.8452 45.6875 31.7102 45.108 31.7102H43.1136V34.608ZM49.7251 39.5V32.9545H50.7308V39.5H49.7251ZM50.2365 31.8636C50.0405 31.8636 49.8714 31.7969 49.7294 31.6634C49.5902 31.5298 49.5206 31.3693 49.5206 31.1818C49.5206 30.9943 49.5902 30.8338 49.7294 30.7003C49.8714 30.5668 50.0405 30.5 50.2365 30.5C50.4325 30.5 50.6001 30.5668 50.7393 30.7003C50.8814 30.8338 50.9524 30.9943 50.9524 31.1818C50.9524 31.3693 50.8814 31.5298 50.7393 31.6634C50.6001 31.7969 50.4325 31.8636 50.2365 31.8636ZM53.5785 30.7727V39.5H52.5728V30.7727H53.5785ZM56.4261 30.7727V39.5H55.4205V30.7727H56.4261ZM61.0124 39.6364C60.3817 39.6364 59.8377 39.4972 59.3803 39.2188C58.9258 38.9375 58.5749 38.5455 58.3278 38.0426C58.0835 37.5369 57.9613 36.9489 57.9613 36.2784C57.9613 35.608 58.0835 35.017 58.3278 34.5057C58.5749 33.9915 58.9187 33.5909 59.359 33.304C59.8022 33.0142 60.3192 32.8693 60.9102 32.8693C61.2511 32.8693 61.5877 32.9261 61.9201 33.0398C62.2525 33.1534 62.555 33.3381 62.8278 33.5938C63.1005 33.8466 63.3178 34.1818 63.4798 34.5994C63.6417 35.017 63.7227 35.5312 63.7227 36.142V36.5682H58.6772V35.6989H62.6999C62.6999 35.3295 62.6261 35 62.4783 34.7102C62.3335 34.4205 62.1261 34.1918 61.8562 34.0241C61.5891 33.8565 61.2738 33.7727 60.9102 33.7727C60.5096 33.7727 60.163 33.8722 59.8704 34.071C59.5806 34.267 59.3576 34.5227 59.2013 34.8381C59.0451 35.1534 58.967 35.4915 58.967 35.8523V36.4318C58.967 36.9261 59.0522 37.3452 59.2227 37.6889C59.396 38.0298 59.636 38.2898 59.9428 38.4688C60.2496 38.6449 60.6062 38.733 61.0124 38.733C61.2766 38.733 61.5153 38.696 61.7283 38.6222C61.9442 38.5455 62.1303 38.4318 62.2866 38.2812C62.4428 38.1278 62.5636 37.9375 62.6488 37.7102L63.6204 37.983C63.5181 38.3125 63.3462 38.6023 63.1048 38.8523C62.8633 39.0994 62.565 39.2926 62.2099 39.4318C61.8548 39.5682 61.4556 39.6364 61.0124 39.6364ZM67.7241 39.6364C67.1786 39.6364 66.6971 39.4986 66.2795 39.223C65.8619 38.9446 65.5352 38.5526 65.2994 38.0469C65.0636 37.5384 64.9457 36.9375 64.9457 36.2443C64.9457 35.5568 65.0636 34.9602 65.2994 34.4545C65.5352 33.9489 65.8633 33.5582 66.2837 33.2827C66.7042 33.0071 67.19 32.8693 67.7411 32.8693C68.1673 32.8693 68.5039 32.9403 68.7511 33.0824C69.0011 33.2216 69.1914 33.3807 69.3221 33.5597C69.4556 33.7358 69.5593 33.8807 69.6332 33.9943H69.7184V30.7727H70.7241V39.5H69.7525V38.4943H69.6332C69.5593 38.6136 69.4542 38.7642 69.3178 38.946C69.1815 39.125 68.9869 39.2855 68.734 39.4276C68.4812 39.5668 68.1445 39.6364 67.7241 39.6364ZM67.8604 38.733C68.2638 38.733 68.6048 38.6278 68.8832 38.4176C69.1616 38.2045 69.3732 37.9105 69.5181 37.5355C69.663 37.1577 69.7354 36.7216 69.7354 36.2273C69.7354 35.7386 69.6644 35.3111 69.5224 34.9446C69.3803 34.5753 69.1701 34.2884 68.8917 34.0838C68.6133 33.8764 68.2695 33.7727 67.8604 33.7727C67.4343 33.7727 67.0792 33.8821 66.7951 34.1009C66.5138 34.3168 66.3022 34.6108 66.1602 34.983C66.021 35.3523 65.9513 35.767 65.9513 36.2273C65.9513 36.6932 66.0224 37.1165 66.1644 37.4972C66.3093 37.875 66.5224 38.1761 66.8036 38.4006C67.0877 38.6222 67.44 38.733 67.8604 38.733ZM75.4499 39.6364C74.8192 39.6364 74.2752 39.4972 73.8178 39.2188C73.3633 38.9375 73.0124 38.5455 72.7653 38.0426C72.521 37.5369 72.3988 36.9489 72.3988 36.2784C72.3988 35.608 72.521 35.017 72.7653 34.5057C73.0124 33.9915 73.3562 33.5909 73.7965 33.304C74.2397 33.0142 74.7567 32.8693 75.3477 32.8693C75.6886 32.8693 76.0252 32.9261 76.3576 33.0398C76.69 33.1534 76.9925 33.3381 77.2653 33.5938C77.538 33.8466 77.7553 34.1818 77.9173 34.5994C78.0792 35.017 78.1602 35.5312 78.1602 36.142V36.5682H73.1147V35.6989H77.1374C77.1374 35.3295 77.0636 35 76.9158 34.7102C76.771 34.4205 76.5636 34.1918 76.2937 34.0241C76.0266 33.8565 75.7113 33.7727 75.3477 33.7727C74.9471 33.7727 74.6005 33.8722 74.3079 34.071C74.0181 34.267 73.7951 34.5227 73.6388 34.8381C73.4826 35.1534 73.4045 35.4915 73.4045 35.8523V36.4318C73.4045 36.9261 73.4897 37.3452 73.6602 37.6889C73.8335 38.0298 74.0735 38.2898 74.3803 38.4688C74.6871 38.6449 75.0437 38.733 75.4499 38.733C75.7141 38.733 75.9528 38.696 76.1658 38.6222C76.3817 38.5455 76.5678 38.4318 76.7241 38.2812C76.8803 38.1278 77.0011 37.9375 77.0863 37.7102L78.0579 37.983C77.9556 38.3125 77.7837 38.6023 77.5423 38.8523C77.3008 39.0994 77.0025 39.2926 76.6474 39.4318C76.2923 39.5682 75.8931 39.6364 75.4499 39.6364ZM86.1161 30.7727V39.5H85.0593V31.8807H85.0082L82.8775 33.2955V32.2216L85.0593 30.7727H86.1161ZM91.7283 30.3636L88.9158 40.8125H87.9954L90.8079 30.3636H91.7283ZM95.8523 39.6193C95.2898 39.6193 94.7884 39.5227 94.348 39.3295C93.9105 39.1364 93.5625 38.8679 93.304 38.5241C93.0483 38.1776 92.9091 37.7756 92.8864 37.3182H93.9602C93.983 37.5994 94.0795 37.8423 94.25 38.0469C94.4205 38.2486 94.6435 38.4048 94.919 38.5156C95.1946 38.6264 95.5 38.6818 95.8352 38.6818C96.2102 38.6818 96.5426 38.6165 96.8324 38.4858C97.1222 38.3551 97.3494 38.1733 97.5142 37.9403C97.679 37.7074 97.7614 37.4375 97.7614 37.1307C97.7614 36.8097 97.6818 36.527 97.5227 36.2827C97.3636 36.0355 97.1307 35.8423 96.8239 35.7031C96.517 35.5639 96.142 35.4943 95.6989 35.4943H95V34.5568H95.6989C96.0455 34.5568 96.3494 34.4943 96.6108 34.3693C96.875 34.2443 97.081 34.0682 97.2287 33.8409C97.3793 33.6136 97.4545 33.3466 97.4545 33.0398C97.4545 32.7443 97.3892 32.4872 97.2585 32.2685C97.1278 32.0497 96.9432 31.8793 96.7045 31.7571C96.4688 31.6349 96.1903 31.5739 95.8693 31.5739C95.5682 31.5739 95.2841 31.6293 95.017 31.7401C94.7528 31.848 94.5369 32.0057 94.3693 32.2131C94.2017 32.4176 94.1108 32.6648 94.0966 32.9545H93.0739C93.0909 32.4972 93.2287 32.0966 93.4872 31.7528C93.7457 31.4062 94.0838 31.1364 94.5014 30.9432C94.9219 30.75 95.3835 30.6534 95.8864 30.6534C96.4261 30.6534 96.8892 30.7628 97.2756 30.9815C97.6619 31.1974 97.9588 31.483 98.1662 31.8381C98.3736 32.1932 98.4773 32.5767 98.4773 32.9886C98.4773 33.4801 98.348 33.8991 98.0895 34.2457C97.8338 34.5923 97.4858 34.8324 97.0455 34.9659V35.0341C97.5966 35.125 98.027 35.3594 98.3366 35.7372C98.6463 36.1122 98.8011 36.5767 98.8011 37.1307C98.8011 37.6051 98.6719 38.0312 98.4134 38.4091C98.1577 38.7841 97.8082 39.0795 97.3651 39.2955C96.9219 39.5114 96.4176 39.6193 95.8523 39.6193ZM103.442 39.6193C103.084 39.6136 102.726 39.5455 102.368 39.4148C102.01 39.2841 101.683 39.0639 101.388 38.7543C101.092 38.4418 100.855 38.0199 100.676 37.4886C100.497 36.9545 100.408 36.2841 100.408 35.4773C100.408 34.7045 100.48 34.0199 100.625 33.4233C100.77 32.8239 100.98 32.3196 101.256 31.9105C101.531 31.4986 101.864 31.1861 102.253 30.973C102.645 30.7599 103.087 30.6534 103.578 30.6534C104.067 30.6534 104.501 30.7514 104.882 30.9474C105.266 31.1406 105.578 31.4105 105.82 31.7571C106.061 32.1037 106.217 32.5028 106.288 32.9545H105.249C105.152 32.5625 104.964 32.2372 104.686 31.9787C104.408 31.7202 104.038 31.5909 103.578 31.5909C102.902 31.5909 102.369 31.8849 101.98 32.473C101.594 33.0611 101.399 33.8864 101.396 34.9489H101.464C101.624 34.7074 101.812 34.5014 102.031 34.331C102.253 34.1577 102.497 34.0241 102.764 33.9304C103.031 33.8366 103.314 33.7898 103.612 33.7898C104.112 33.7898 104.57 33.9148 104.984 34.1648C105.399 34.4119 105.732 34.7543 105.982 35.1918C106.232 35.6264 106.357 36.125 106.357 36.6875C106.357 37.2273 106.236 37.7216 105.994 38.1705C105.753 38.6165 105.413 38.9716 104.976 39.2358C104.541 39.4972 104.03 39.625 103.442 39.6193ZM103.442 38.6818C103.8 38.6818 104.121 38.5923 104.405 38.4134C104.692 38.2344 104.918 37.9943 105.082 37.6932C105.25 37.392 105.334 37.0568 105.334 36.6875C105.334 36.3267 105.253 35.9986 105.091 35.7031C104.932 35.4048 104.712 35.1676 104.43 34.9915C104.152 34.8153 103.834 34.7273 103.476 34.7273C103.206 34.7273 102.955 34.7812 102.722 34.8892C102.489 34.9943 102.284 35.1392 102.108 35.3239C101.935 35.5085 101.798 35.7202 101.699 35.9588C101.599 36.1946 101.55 36.4432 101.55 36.7045C101.55 37.0511 101.631 37.375 101.793 37.6761C101.957 37.9773 102.182 38.2202 102.466 38.4048C102.753 38.5895 103.078 38.6818 103.442 38.6818ZM110.76 39.6193C110.26 39.6193 109.809 39.5199 109.409 39.321C109.008 39.1222 108.687 38.8494 108.446 38.5028C108.204 38.1562 108.072 37.7614 108.049 37.3182H109.072C109.112 37.7131 109.291 38.0398 109.609 38.2983C109.93 38.554 110.314 38.6818 110.76 38.6818C111.118 38.6818 111.436 38.598 111.714 38.4304C111.995 38.2628 112.216 38.0327 112.375 37.7401C112.537 37.4446 112.618 37.1108 112.618 36.7386C112.618 36.358 112.534 36.0185 112.366 35.7202C112.201 35.419 111.974 35.1818 111.684 35.0085C111.395 34.8352 111.064 34.7472 110.691 34.7443C110.424 34.7415 110.15 34.7827 109.869 34.8679C109.588 34.9503 109.356 35.0568 109.174 35.1875L108.186 35.0682L108.714 30.7727H113.248V31.7102H109.6L109.294 34.2841H109.345C109.524 34.142 109.748 34.0241 110.018 33.9304C110.288 33.8366 110.569 33.7898 110.862 33.7898C111.396 33.7898 111.872 33.9176 112.289 34.1733C112.71 34.4261 113.039 34.7727 113.278 35.2131C113.52 35.6534 113.64 36.1562 113.64 36.7216C113.64 37.2784 113.515 37.7756 113.265 38.2131C113.018 38.6477 112.677 38.9915 112.243 39.2443C111.808 39.4943 111.314 39.6193 110.76 39.6193Z" fill="#6F6F6F"/>
<g opacity="0.2">
<path d="M256.5 32L261.5 27L256.5 22" stroke="#171717" stroke-width="1.67" stroke-linecap="round" stroke-linejoin="round"/>
</g>
</g>
<path d="M277 1H6C2.96243 1 0.5 3.46243 0.5 6.5V47.5C0.5 50.5376 2.96243 53 6 53H277C280.038 53 282.5 50.5376 282.5 47.5V6.5C282.5 3.46243 280.038 1 277 1Z" stroke="#171717" stroke-opacity="0.6"/>
<defs>
<clipPath id="clip0_1289_181">
<path d="M1 6.5C1 3.73858 3.23858 1.5 6 1.5H277C279.761 1.5 282 3.73858 282 6.5V47.5C282 50.2614 279.761 52.5 277 52.5H6C3.23858 52.5 1 50.2614 1 47.5V6.5Z" fill="white"/>
</clipPath>
</defs>
</svg>
